<svg width="211" height="50" viewBox="0 0 211 50" fill="none" xmlns="http://www.w3.org/2000/svg">
<path d="M30.9617 19.2217H19.7031V30.4882H30.9617V19.2217Z" fill="#FF375E"/>
<path d="M72.1226 18.2419C74.7333 18.2419 76.3242 19.5074 77.2624 21.7933H82.3614C81.2192 16.4866 77.344 13.5884 72.1226 13.5884C65.4735 13.5884 60.9863 18.2419 60.9863 24.7324C60.9863 31.2637 65.4735 35.9581 72.1226 35.9581C77.344 35.9581 81.26 33.0598 82.3614 27.9164H77.2216C76.2834 30.1616 74.6925 31.3045 72.1226 31.3045C68.4105 31.3045 66.2077 28.692 66.2077 24.7324C66.2077 20.8544 68.4105 18.2419 72.1226 18.2419ZM95.4148 13.6292C89.0921 13.6292 84.4418 18.2827 84.4418 24.6508C84.4418 31.3862 88.9697 35.9989 95.5372 35.9989C100.432 35.9989 104.838 33.019 106.021 29.3451H100.636C99.7796 30.4065 98.1071 31.5086 95.6188 31.5086C92.0699 31.5086 90.0711 29.5901 89.6632 26.0795H106.184C106.266 25.6305 106.266 25.0182 106.266 24.6916C106.225 17.8337 101.86 13.6292 95.4148 13.6292ZM89.8671 22.0791C90.5606 19.5074 92.4778 18.1195 95.3741 18.1195C98.3519 18.1195 100.106 19.4257 100.718 22.0791H89.8671ZM122.419 13.6292C119.36 13.6292 116.831 14.7722 115.077 16.854V14.2007H109.937V35.4274H115.077V21.9974C116.056 19.8339 118.585 18.3644 120.828 18.3644C123.847 18.3644 125.152 20.4054 125.152 23.1404V35.4274H130.292V21.875C130.292 16.9356 127.355 13.6292 122.419 13.6292ZM141.143 7.22032H136.003V14.2007H132.169V18.7318H136.003V29.5493C136.003 33.0598 138.083 35.3866 142.57 35.3866H147.873V30.8555H142.978C141.836 30.8555 141.143 30.2432 141.143 28.8961V18.7318H147.873V14.2007H141.143V7.22032ZM160.968 13.6292C154.645 13.6292 149.995 18.2827 149.995 24.6508C149.995 31.3862 154.523 35.9989 161.09 35.9989C165.985 35.9989 170.391 33.019 171.574 29.3451H166.189C165.332 30.4065 163.66 31.5086 161.172 31.5086C157.623 31.5086 155.624 29.5901 155.216 26.0795H171.737C171.818 25.6305 171.818 25.0182 171.818 24.6916C171.778 17.8337 167.413 13.6292 160.968 13.6292ZM155.42 22.0791C156.113 19.5074 158.031 18.1195 160.927 18.1195C163.905 18.1195 165.659 19.4257 166.271 22.0791H155.42ZM180.466 17.303V14.2007H175.327V35.4274H180.466V21.3035C181.364 19.9564 183.118 18.7726 185.81 18.7726H188.421V14.2007H186.34C183.77 14.2007 181.812 15.4253 180.466 17.303ZM206.614 20.1605C208.246 18.7726 209.184 16.3642 209.184 14.2007C209.184 9.83285 205.553 6.52637 200.781 6.52637C196.008 6.52637 192.418 9.79203 192.418 14.1598V14.2007H197.354C197.477 12.4046 198.864 11.1391 200.781 11.1391C202.82 11.1391 204.248 12.4454 204.248 14.813C204.248 16.6907 203.147 18.7726 200.373 18.7726H198.456V23.3037H200.822C203.636 23.3037 205.39 24.4058 205.39 26.8551C205.39 29.7942 203.718 31.5086 200.74 31.5086C198.292 31.5086 196.824 29.8758 196.702 27.1408H191.48C191.48 32.5292 195.274 36.2847 200.74 36.2847C206.655 36.2847 210.612 32.4883 210.612 27.0592C210.652 24.0385 209.143 21.7525 206.614 20.1605Z" fill="white"/>
<path d="M25.3327 0.362305L0.857422 24.8547L25.3327 49.3472L49.8079 24.8547L25.3327 0.362305ZM23.2523 30.488V41.3463L8.85267 26.9366H19.7034V22.7729H8.81188L23.2115 8.36316V19.2215H27.3723V8.32234L43.8931 24.8547L27.3723 41.3871V30.5288L23.2523 30.488Z" fill="white"/>
</svg>
